<svg id="레이어_1" data-name="레이어 1" xmlns="http://www.w3.org/2000/svg" viewBox="0 0 693.16 152.48"><title>nalra-rang</title><path d="M81,44.81H65.91v55.24c-.95-.91-1.51-1.41-2-2q-25-26-49.92-52c-2.75-2.88-6-2.88-9.3-2.2C2.06,44.44,0,48.38,0,51.72q0,35.61,0,71.22v2.47H16V70.68l1.73,1.85q10.7,11.17,21.4,22.34,14.44,15,28.91,30c2.13,2.19,6.53,2.37,9.33,1,3.59-1.7,3.78-4.75,3.78-8q0-35.23,0-70.47C81.16,46.59,81.09,45.71,81,44.81Z"/><path d="M693.11,86.23a35.34,35.34,0,0,0-1.2-9c-1.84-6.79-9.17-12.21-15.55-12.47-10.56-.43-21.16-.23-31.73-.26a15.84,15.84,0,0,0-4.72.33c-9.39,3-14.39,10.29-14.81,19.62-.22,4.91-.15,9.83,0,14.74a113.08,113.08,0,0,0,.85,11.56c1.1,8.28,10.24,14.92,18.42,14.88,8.67,0,17.33,0,26,0,.8,0,1.61-.09,2.49-.15V110.74c-1.13-.09-2.1-.22-3.07-.22q-11.37,0-22.75,0c-3.93,0-6.08-2-6.12-5.92q-.1-9.75,0-19.49a5.4,5.4,0,0,1,5.64-5.43c8.42,0,16.83,0,25.25,0,3.86,0,6,2.35,6,5.85.09,15.08.07,30.16,0,45.24a5.78,5.78,0,0,1-6,6c-7.91-.18-15.83,0-23.74-.11-2.38,0-3.08.87-3,3.06.1,3.16.12,6.34,0,9.5-.09,2.38.92,3.3,3.22,3.28q9.25-.07,18.5,0a40.56,40.56,0,0,0,13.38-1.76c7.09-2.37,12.62-8.84,12.73-16.25C693.2,118.39,693.18,102.31,693.11,86.23Z"/><path d="M325.84,75.78c-3-6.45-8.2-10.73-15.44-11-11.31-.44-22.65-.21-34-.24a7.35,7.35,0,0,0-1.41.27V78.9h3c8.91,0,17.83-.11,26.73,0,5.14.09,7.92,1.8,8,5.65.21,6.91.11,13.82,0,20.74a5.45,5.45,0,0,1-5.11,5.42q-13.74,0-27.48,0a4.55,4.55,0,0,1-2.14-.39c-2.22-1.25-3.67-4.2-3-6.15,1.06-3,3.1-4.66,6-4.6,8.08.16,16.16,0,24.24.09,1.85,0,2.53-.62,2.47-2.47-.1-3.33-.13-6.67,0-10,.09-2-.56-2.58-2.53-2.56-8.91.09-17.83-.14-26.73.15a18.57,18.57,0,0,0-8.35,2.33c-9.06,5.22-12.34,16.46-9,25.69a19.09,19.09,0,0,0,17.83,12.81c10.16.11,20.32,0,30.48,0A16.85,16.85,0,0,0,320.94,121c4.77-4.24,6.74-9.76,6.89-16,.16-6.49.24-13,0-19.48A26.7,26.7,0,0,0,325.84,75.78Z"/><path d="M533,75.43c-3.39-6.45-8.63-10.52-16-10.73-11.07-.31-22.16-.15-33.24-.16a8.83,8.83,0,0,0-1.71.35c0,4.21.05,8.29,0,12.37,0,1.67.83,1.84,2.17,1.83,9.74-.08,19.49-.3,29.23-.08,3.69.08,6.83,1.43,6.68,6.89-.19,6.58,0,13.16-.06,19.75a5.07,5.07,0,0,1-5,5.12q-13.62.06-27.25,0a5.24,5.24,0,0,1-2.54-.65c-2.55-1.51-3.15-3.6-2.21-7,.55-2,2.69-3.4,5.29-3.4H514.8V84.84c-.78-.06-1.43-.14-2.08-.14-8.33,0-16.67.06-25,0A18.8,18.8,0,0,0,471,93.36c-3.05,4.55-3.75,9.61-3.31,15.23.7,9.06,9.57,17,18.15,17.06,10.42.05,20.83.09,31.25-.05a15.39,15.39,0,0,0,6.07-1.47c8-3.72,11.63-10.32,11.74-19,.09-7-.06-14,.05-21A17.8,17.8,0,0,0,533,75.43Z"/><path d="M157,75.42c-3.4-6.44-8.63-10.52-16-10.73-11.07-.3-22.16-.14-33.24-.17a14.31,14.31,0,0,0-1.7.23c0,4.35.05,8.43,0,12.5,0,1.68.84,1.83,2.17,1.82,9.74-.08,19.49-.3,29.23-.08,3.69.08,6.83,1.43,6.67,6.89-.19,6.58,0,13.16-.06,19.75a5.07,5.07,0,0,1-5.05,5.11q-13.62.06-27.25,0a5.23,5.23,0,0,1-2.54-.66c-2.54-1.51-3.14-3.61-2.2-7,.55-2,2.7-3.39,5.3-3.39H138.8V84.7H136c-8.08,0-16.17.06-24.25,0A18.8,18.8,0,0,0,95,93.37C92,97.91,91.29,103,91.73,108.6c.7,9,9.56,17,18.16,17.05,10.42.05,20.83.09,31.25-.05a15.38,15.38,0,0,0,6.07-1.47c8-3.72,11.63-10.32,11.73-19,.09-7-.06-14,.05-21A17.76,17.76,0,0,0,157,75.42Z"/><path d="M610.8,77C606.59,70,600,65.34,591.93,64.87c-12.62-.72-25.3-.35-38-.34-4.82,0-7.79,3.17-7.79,8q0,25.11,0,50.22c0,.5-.16,1.09.05,1.48.3.55.86,1.36,1.32,1.37,4.72.1,9.44.06,14.45.06v-46c8.78,0,17.26-.08,25.74.07a11,11,0,0,1,4.88,1.51A11.6,11.6,0,0,1,599,92c0,7.24,0,14.49,0,21.73v12c4.89,0,9.38,0,13.87,0,1.49,0,2.06-.5,2-2-.3-12.36-.35-24.72-.95-37.06A21.63,21.63,0,0,0,610.8,77Z"/><path d="M192.72,110.51c-4.89,0-6.85-1.93-6.85-6.72q0-30.84,0-61.69a5.78,5.78,0,0,0-.06-2c-.22-.56-.83-1.36-1.29-1.37-4.72-.1-9.45-.06-14.38-.06-.07,1-.14,1.58-.14,2.16q0,33.09.06,66.18c0,4.48,1.82,8.26,4.65,11.66,6.22,7.47,14.54,7.48,23.15,6.79v-15Z"/><path d="M433.23,64.51a19.46,19.46,0,0,0-9.43,2.2c-6.5,3.47-10.5,8.86-10.66,16.23-.31,13.65-.12,27.32-.12,41a9.63,9.63,0,0,0,.21,1.49h15.65c0-1.25,0-2.24,0-3.24,0-12.16.15-24.33-.08-36.48-.08-4,2.38-6,6.21-6,9.75,0,19.49,0,29.24,0H467v-15c-.6-.06-1.08-.14-1.56-.14C454.72,64.51,444,64.54,433.23,64.51Z"/><path d="M260,64.51c-10.87,0-21.45-.08-32,.05a32.28,32.28,0,0,0-8.49,1.17,18.25,18.25,0,0,0-13.37,16.9c-.33,13.82-.13,27.66-.13,41.48a8.34,8.34,0,0,0,.19,1.31h15.67v-3c0-12.08.17-24.16-.09-36.24-.1-4.61,2.1-6.61,6.67-6.58,9.58.06,19.16,0,28.74,0H260Z"/><path d="M337.38,16.28a2,2,0,0,0,.67-.12l7.61-2.7a2,2,0,0,0-1.34-3.77l-7.61,2.7a2,2,0,0,0,.67,3.89Z"/><path d="M345.09,18.15l-7.61,2.7a2,2,0,1,0,1.34,3.77l7.61-2.7a2,2,0,0,0-1.34-3.77Z"/><path d="M352.11,78a2,2,0,0,0,.66-.11l10.61-3.7a2,2,0,1,0-1.32-3.78l-10.61,3.7a2,2,0,0,0,.66,3.89Z"/><path d="M369.08,82.56a2,2,0,0,0-2.58-1.16l-17.61,6.7a2,2,0,1,0,1.42,3.74l17.61-6.7A2,2,0,0,0,369.08,82.56Z"/><path d="M371.53,91.67l-10.47,3.69a2,2,0,1,0,1.33,3.77l10.47-3.69a2,2,0,1,0-1.33-3.77Z"/><path d="M405.85,44.56a2,2,0,0,0,.63-.1l23.33-7.68a2,2,0,0,0-1.25-3.8l-23.33,7.68a2,2,0,0,0,.63,3.9Z"/><path d="M432.23,44.2c4-1.42,11.17-6.61,10.09-16.1-.3-2.6-2.26-11.07-14.84-10.77a1.35,1.35,0,0,1-.92-.29l-6-4.6a9.94,9.94,0,0,0-9-1.6l-8.62,2.7h0l-59.8,18.72a18.16,18.16,0,0,1-5.94.83,3.63,3.63,0,0,1-2.61-1.21l-5.82-6.53a2,2,0,0,0-2.26-.52l-6.1,2.54a2,2,0,0,0-1.14,2.44l4.83,15.49a30,30,0,0,0,28.71,21.16c.72,0,1.45,0,2.18-.08l9.18-.65a2,2,0,1,0-.28-4l-9.18.65A26,26,0,0,1,327.9,44.12l-4.29-13.75,3.1-1.29,4.87,5.46a7.65,7.65,0,0,0,5.49,2.54,22.25,22.25,0,0,0,7.24-1l58.3-18.25,2.19,3.82a7.64,7.64,0,0,0,6.61,3.82,7.53,7.53,0,0,0,1.79-.22l4.39-1.08a2,2,0,0,0-1-3.88l-4.38,1.08a3.61,3.61,0,0,1-4-1.7l-1.75-3.06,6.22-1.95a5.93,5.93,0,0,1,5.38,1l6,4.6a5.42,5.42,0,0,0,3.45,1.12c3.73-.08,10,.74,10.78,7.22,1,8.67-7.13,11.75-7.39,11.85l-29.86,9.43.86-5.74a2,2,0,0,0-4-.59l-6.25,41.86a1,1,0,0,1-.62.76l-6.91,2.57a.69.69,0,0,1-.89-.43L372.49,55.46l19.86-6.94A2,2,0,0,0,391,44.74l-21.71,7.59a2,2,0,0,0-1.24,2.52l11.46,34.68a4.68,4.68,0,0,0,6.09,2.92l6.91-2.57A5,5,0,0,0,395.7,86l4.75-31.84a2,2,0,0,0,.61-.08Z"/><path d="M357,20.81a2,2,0,0,0,3.79-1.28L356.64,7l8.92-3,11.7,13a2,2,0,1,0,3-2.68l-11.69-13A4,4,0,0,0,364.22.21l-8.87,3a4.06,4.06,0,0,0-2.54,5.14Z"/><circle cx="351.48" cy="41.19" r="3.47"/><circle cx="362.55" cy="37.72" r="3.47"/><circle cx="373.44" cy="34.11" r="3.47"/><circle cx="384.97" cy="30.39" r="3.47"/><circle cx="396.02" cy="26.92" r="3.47"/></svg>